<svg xmlns="http://www.w3.org/2000/svg" width="400" height="1015" viewBox="460 63 400 1015"><path d="M587 375 L 553 390 L 530 421 L 460 650 L 463 669 L 477 681 L 493 682 L 509 671 L 568 493 L 578 560 L 575 578 L 542 632 L 513 696 L 488 771 L 474 833 L 487 844 L 583 845 L 583 1050 L 589 1064 L 610 1078 L 636 1074 L 646 1065 L 653 1049 L 653 845 L 667 845 L 667 1049 L 681 1072 L 694 1078 L 710 1078 L 728 1068 L 738 1046 L 738 845 L 833 844 L 841 841 L 846 832 L 831 767 L 810 704 L 780 636 L 745 578 L 742 560 L 752 493 L 812 672 L 824 681 L 843 681 L 855 672 L 860 650 L 791 423 L 775 397 L 750 380 L 718 374 L 725 488 L 712 565 L 608 565 L 596 494 L 603 374 Z M602 582 L 640 584 L 718 582 L 739 625 L 754 668 L 768 729 L 766 741 L 755 749 L 757 755 L 755 769 L 746 779 L 739 782 L 727 782 L 714 775 L 709 787 L 702 793 L 692 797 L 675 795 L 668 791 L 661 783 L 645 795 L 629 797 L 615 791 L 608 783 L 606 775 L 593 782 L 582 782 L 574 779 L 567 772 L 563 762 L 565 749 L 559 746 L 552 736 L 554 717 L 563 679 L 574 644 L 588 609 Z M553 125 L 551 142 L 555 157 L 560 165 L 569 174 L 584 182 L 587 208 L 613 197 L 636 192 L 658 190 L 686 191 L 710 195 L 726 200 L 743 208 L 747 182 L 757 179 L 771 170 L 780 158 L 784 146 L 784 130 L 778 115 L 768 104 L 758 98 L 747 95 L 735 95 L 724 98 L 718 87 L 708 76 L 691 66 L 679 63 L 661 63 L 640 70 L 627 80 L 618 92 L 615 99 L 602 95 L 589 95 L 578 98 L 568 104 L 561 111 Z M747 282 L 738 282 L 737 281 L 727 280 L 709 274 L 688 262 L 666 241 L 664 241 L 651 254 L 633 266 L 621 272 L 607 277 L 581 282 L 581 289 L 585 304 L 594 322 L 601 331 L 613 342 L 620 347 L 640 356 L 649 358 L 655 358 L 656 359 L 672 359 L 687 356 L 700 351 L 717 340 L 730 327 L 737 317 L 743 304 L 747 289 Z M581 238 L 579 249 L 579 274 L 580 275 L 590 274 L 606 270 L 617 266 L 635 257 L 650 246 L 665 231 L 684 250 L 704 264 L 720 271 L 743 276 L 749 275 L 750 252 L 749 251 L 748 238 L 743 220 L 725 211 L 708 206 L 682 202 L 646 202 L 614 208 L 600 213 L 588 219 Z M620 374 L 619 377 L 619 386 L 618 387 L 618 396 L 617 397 L 617 407 L 616 408 L 614 443 L 613 444 L 613 460 L 614 461 L 617 461 L 618 460 L 626 460 L 627 461 L 702 461 L 703 460 L 708 460 L 708 441 L 707 440 L 707 427 L 706 426 L 706 416 L 705 415 L 705 403 L 704 402 L 702 374 L 697 374 L 696 373 L 692 373 L 691 374 L 680 374 L 679 373 L 675 373 L 674 374 L 662 374 L 661 373 L 650 373 L 649 374 L 646 373 L 625 373 L 624 374 Z M767 256 L 761 256 L 760 255 L 757 255 L 756 256 L 756 273 L 755 274 L 754 287 L 753 288 L 753 293 L 752 294 L 751 301 L 743 320 L 737 328 L 737 330 L 747 334 L 764 334 L 776 329 L 787 319 L 791 313 L 794 305 L 794 301 L 795 300 L 795 288 L 794 287 L 793 280 L 789 272 L 786 268 L 778 261 Z" fill="#000000" fill-rule="evenodd"/></svg>