<svg xmlns="http://www.w3.org/2000/svg" width="340" height="1053" viewBox="25 25 340 1053"><path d="M91 352 L 53 370 L 38 387 L 27 412 L 25 658 L 30 670 L 47 682 L 69 679 L 82 664 L 84 462 L 92 460 L 94 1039 L 106 1064 L 131 1078 L 151 1078 L 166 1072 L 186 1047 L 188 765 L 200 763 L 203 1044 L 222 1071 L 239 1078 L 259 1078 L 285 1063 L 296 1039 L 296 462 L 305 460 L 307 660 L 321 679 L 343 682 L 355 676 L 365 660 L 364 414 L 349 382 L 328 363 L 300 352 L 265 351 L 265 450 L 286 597 L 284 738 L 277 743 L 113 743 L 104 731 L 104 612 L 125 455 L 126 360 L 125 351 Z M76 84 L 71 99 L 71 112 L 74 123 L 82 136 L 91 144 L 112 152 L 116 196 L 142 187 L 186 181 L 218 182 L 240 185 L 273 196 L 276 153 L 298 143 L 308 133 L 314 122 L 317 110 L 314 89 L 308 78 L 298 68 L 280 60 L 262 60 L 253 63 L 244 48 L 234 38 L 218 29 L 200 25 L 183 26 L 164 33 L 150 44 L 138 63 L 127 60 L 108 60 L 101 62 L 90 68 Z M118 207 L 114 219 L 111 239 L 111 263 L 115 280 L 123 297 L 131 308 L 141 318 L 154 327 L 164 332 L 182 337 L 200 338 L 214 336 L 233 329 L 243 323 L 262 305 L 268 296 L 277 275 L 280 256 L 278 225 L 275 212 L 272 207 L 247 198 L 212 193 L 178 193 L 160 195 L 140 199 Z M133 603 L 133 646 L 134 647 L 135 655 L 141 668 L 144 672 L 153 681 L 162 687 L 164 687 L 175 692 L 185 693 L 186 694 L 204 694 L 205 693 L 215 692 L 226 688 L 236 682 L 247 671 L 254 659 L 255 653 L 257 649 L 257 602 L 134 602 Z M142 351 L 142 445 L 164 445 L 165 446 L 173 446 L 174 445 L 201 445 L 202 446 L 225 446 L 226 445 L 231 445 L 232 446 L 241 446 L 242 445 L 248 445 L 248 351 Z M133 277 L 135 276 L 139 281 L 144 283 L 147 283 L 157 278 L 169 267 L 178 263 L 185 263 L 192 266 L 194 268 L 196 268 L 205 263 L 213 263 L 222 267 L 236 280 L 240 282 L 243 282 L 244 283 L 251 281 L 254 276 L 256 275 L 257 276 L 257 283 L 256 286 L 251 292 L 244 296 L 237 298 L 227 298 L 226 297 L 221 297 L 211 294 L 203 290 L 196 284 L 188 290 L 180 294 L 170 297 L 166 297 L 165 298 L 154 298 L 153 297 L 146 296 L 138 291 L 134 285 Z" fill="#000000" fill-rule="evenodd"/></svg>