<svg xmlns="http://www.w3.org/2000/svg" width="455" height="894" viewBox="536 32 455 894"><path d="M646 204 L 632 212 L 584 257 L 542 303 L 536 316 L 545 339 L 618 413 L 595 432 L 596 443 L 607 451 L 623 447 L 633 437 L 649 407 L 597 319 L 645 276 L 670 326 L 678 356 L 677 377 L 670 395 L 560 557 L 562 565 L 582 579 L 637 602 L 645 849 L 628 897 L 607 911 L 602 921 L 611 926 L 649 924 L 676 889 L 681 925 L 686 925 L 695 879 L 688 840 L 705 722 L 713 617 L 773 616 L 836 746 L 885 834 L 877 865 L 890 924 L 897 923 L 900 885 L 930 923 L 979 924 L 985 914 L 954 891 L 945 873 L 850 604 L 886 589 L 889 575 L 792 392 L 787 367 L 789 340 L 797 315 L 818 366 L 830 375 L 848 373 L 880 342 L 883 372 L 869 374 L 861 382 L 845 458 L 848 471 L 857 476 L 983 475 L 991 466 L 974 382 L 966 374 L 951 372 L 950 351 L 941 326 L 926 308 L 912 300 L 923 285 L 946 286 L 949 275 L 931 253 L 914 253 L 847 313 L 822 229 L 806 210 L 785 202 L 744 197 L 676 198 Z M667 61 L 657 79 L 652 101 L 653 119 L 657 133 L 667 151 L 678 163 L 689 171 L 703 178 L 720 182 L 736 182 L 762 175 L 772 186 L 787 196 L 811 203 L 823 203 L 836 200 L 850 192 L 862 178 L 868 158 L 867 146 L 864 137 L 862 136 L 858 143 L 851 150 L 842 155 L 827 156 L 819 153 L 811 145 L 807 137 L 804 122 L 803 92 L 798 76 L 785 56 L 770 43 L 759 37 L 743 32 L 713 32 L 688 42 Z M904 310 L 908 310 L 918 315 L 927 324 L 933 333 L 937 342 L 937 345 L 940 354 L 941 369 L 939 373 L 895 373 L 894 372 L 893 364 L 892 363 L 892 356 L 891 355 L 891 338 L 892 337 L 892 331 L 893 330 L 894 323 Z M914 416 L 919 416 L 925 421 L 926 427 L 924 431 L 920 434 L 913 434 L 911 433 L 907 427 L 908 421 Z" fill="#000000" fill-rule="evenodd"/></svg>