<?xml version="1.0" encoding="UTF-8"?>
<svg xmlns="http://www.w3.org/2000/svg" width="1017" height="952" viewBox="0 0 1017 952">
  <title>confident duo in minimalist style</title>
  <path d="M 160 192 L 129 210 L 32 306 L 25 325 L 32 348 L 140 459 L 157 460 L 175 442 L 175 419 L 106 330 L 159 286 L 184 426 L 120 864 L 111 877 L 86 893 L 82 915 L 93 926 L 169 926 L 188 915 L 195 895 L 262 543 L 269 542 L 274 548 L 341 908 L 351 921 L 363 926 L 442 925 L 451 913 L 449 898 L 440 886 L 422 877 L 413 864 L 348 428 L 371 286 L 424 330 L 357 419 L 355 434 L 361 450 L 379 461 L 397 456 L 493 352 L 502 336 L 501 314 L 397 207 L 372 193 L 337 186 L 196 186 Z M 646 204 L 632 212 L 584 257 L 542 303 L 536 316 L 545 339 L 618 413 L 595 432 L 596 443 L 607 451 L 623 447 L 633 437 L 649 407 L 597 319 L 645 276 L 670 326 L 678 356 L 677 377 L 670 395 L 560 557 L 562 565 L 582 579 L 637 602 L 645 849 L 628 897 L 607 911 L 602 921 L 611 926 L 649 924 L 676 889 L 681 925 L 686 925 L 695 879 L 688 840 L 705 722 L 713 617 L 773 616 L 836 746 L 885 834 L 877 865 L 890 924 L 897 923 L 900 885 L 930 923 L 979 924 L 985 914 L 954 891 L 945 873 L 850 604 L 886 589 L 889 575 L 792 392 L 787 367 L 789 340 L 797 315 L 818 366 L 830 375 L 848 373 L 880 342 L 883 372 L 869 374 L 861 382 L 845 458 L 848 471 L 857 476 L 983 475 L 991 466 L 974 382 L 966 374 L 951 372 L 950 351 L 941 326 L 926 308 L 912 300 L 923 285 L 946 286 L 949 275 L 931 253 L 914 253 L 847 313 L 822 229 L 806 210 L 785 202 L 744 197 L 676 198 Z M 667 61 L 657 79 L 652 101 L 653 119 L 657 133 L 667 151 L 678 163 L 689 171 L 703 178 L 720 182 L 736 182 L 762 175 L 772 186 L 787 196 L 811 203 L 823 203 L 836 200 L 850 192 L 862 178 L 868 158 L 867 146 L 864 137 L 862 136 L 858 143 L 851 150 L 842 155 L 827 156 L 819 153 L 811 145 L 807 137 L 804 122 L 803 92 L 798 76 L 785 56 L 770 43 L 759 37 L 743 32 L 713 32 L 688 42 Z M 261 25 L 250 27 L 235 33 L 224 40 L 213 50 L 205 61 L 199 73 L 195 87 L 194 106 L 197 121 L 205 139 L 214 151 L 225 161 L 243 171 L 253 174 L 267 176 L 282 175 L 299 170 L 312 163 L 322 155 L 330 146 L 336 137 L 342 124 L 345 112 L 346 95 L 343 79 L 339 68 L 331 55 L 321 44 L 307 34 L 290 27 L 280 25 Z M 253 204 L 280 204 L 283 207 L 282 213 L 275 229 L 275 241 L 294 404 L 287 413 L 268 432 L 263 431 L 239 406 L 239 396 L 241 387 L 246 334 L 258 236 L 258 230 L 250 212 L 250 207 Z M 904 310 L 908 310 L 918 315 L 927 324 L 933 333 L 937 342 L 937 345 L 940 354 L 941 369 L 939 373 L 895 373 L 894 372 L 893 364 L 892 363 L 892 356 L 891 355 L 891 338 L 892 337 L 892 331 L 893 330 L 894 323 Z M 914 416 L 919 416 L 925 421 L 926 427 L 924 431 L 920 434 L 913 434 L 911 433 L 907 427 L 908 421 Z" fill="#000000" fill-rule="evenodd"/>
</svg>
