<svg xmlns="http://www.w3.org/2000/svg" width="477" height="901" viewBox="25 25 477 901"><path d="M160 192 L 129 210 L 32 306 L 25 325 L 32 348 L 140 459 L 157 460 L 175 442 L 175 419 L 106 330 L 159 286 L 184 426 L 120 864 L 111 877 L 86 893 L 82 915 L 93 926 L 169 926 L 188 915 L 195 895 L 262 543 L 269 542 L 274 548 L 341 908 L 351 921 L 363 926 L 442 925 L 451 913 L 449 898 L 440 886 L 422 877 L 413 864 L 348 428 L 371 286 L 424 330 L 357 419 L 355 434 L 361 450 L 379 461 L 397 456 L 493 352 L 502 336 L 501 314 L 397 207 L 372 193 L 337 186 L 196 186 Z M261 25 L 250 27 L 235 33 L 224 40 L 213 50 L 205 61 L 199 73 L 195 87 L 194 106 L 197 121 L 205 139 L 214 151 L 225 161 L 243 171 L 253 174 L 267 176 L 282 175 L 299 170 L 312 163 L 322 155 L 330 146 L 336 137 L 342 124 L 345 112 L 346 95 L 343 79 L 339 68 L 331 55 L 321 44 L 307 34 L 290 27 L 280 25 Z M253 204 L 280 204 L 283 207 L 282 213 L 275 229 L 275 241 L 294 404 L 287 413 L 268 432 L 263 431 L 239 406 L 239 396 L 241 387 L 246 334 L 258 236 L 258 230 L 250 212 L 250 207 Z" fill="#000000" fill-rule="evenodd"/></svg>