<svg xmlns="http://www.w3.org/2000/svg" width="403" height="1068" viewBox="550 44 403 1068"><path d="M672 292 L 652 299 L 634 314 L 551 433 L 550 447 L 556 461 L 635 542 L 557 704 L 608 730 L 667 738 L 691 823 L 771 920 L 793 932 L 797 903 L 815 873 L 790 832 L 758 799 L 785 738 L 859 728 L 907 705 L 833 550 L 788 477 L 786 451 L 803 402 L 828 484 L 887 612 L 903 626 L 907 622 L 903 604 L 940 612 L 950 609 L 953 600 L 903 565 L 869 458 L 839 334 L 826 310 L 806 296 L 785 291 Z M873 113 L 866 102 L 860 100 L 851 101 L 836 108 L 793 141 L 768 152 L 741 157 L 713 156 L 684 148 L 658 133 L 630 111 L 616 105 L 605 105 L 598 110 L 595 116 L 595 128 L 604 147 L 618 161 L 636 172 L 659 180 L 658 208 L 660 217 L 669 238 L 684 256 L 695 264 L 710 271 L 723 274 L 743 274 L 768 266 L 786 253 L 793 245 L 804 226 L 808 213 L 808 179 L 841 165 L 859 150 L 871 131 Z M657 917 L 655 919 L 655 929 L 664 994 L 665 1024 L 658 1045 L 649 1063 L 639 1075 L 617 1090 L 613 1097 L 612 1104 L 616 1108 L 634 1112 L 662 1112 L 671 1110 L 682 1105 L 707 1079 L 709 1080 L 709 1104 L 732 1104 L 734 1102 L 741 1057 L 741 1040 L 733 1019 L 732 1011 L 746 921 L 744 918 L 739 917 L 721 924 L 710 932 L 689 956 L 673 929 L 664 919 Z M834 876 L 829 876 L 822 880 L 809 896 L 801 918 L 800 944 L 771 929 L 766 928 L 763 931 L 815 996 L 823 1009 L 828 1035 L 829 1059 L 826 1069 L 814 1090 L 814 1101 L 818 1107 L 824 1107 L 833 1104 L 849 1096 L 867 1083 L 874 1075 L 879 1064 L 882 1028 L 885 1026 L 895 1036 L 900 1038 L 914 1018 L 912 1011 L 892 976 L 874 961 Z M782 55 L 775 47 L 769 44 L 760 44 L 739 56 L 728 56 L 711 47 L 708 47 L 707 46 L 699 48 L 695 51 L 687 62 L 681 75 L 674 99 L 674 103 L 673 104 L 669 127 L 678 133 L 693 140 L 699 141 L 703 143 L 707 143 L 713 145 L 720 145 L 721 146 L 743 146 L 744 145 L 756 144 L 773 139 L 788 132 L 799 124 L 799 119 L 797 112 L 795 94 L 794 93 L 794 89 L 793 88 L 790 73 Z M818 190 L 819 202 L 814 226 L 804 246 L 793 259 L 793 273 L 796 284 L 810 288 L 825 297 L 838 311 L 843 320 L 845 327 L 850 330 L 864 333 L 872 333 L 891 328 L 903 319 L 909 310 L 910 303 L 899 308 L 888 308 L 878 304 L 875 300 L 891 296 L 902 286 L 906 277 L 906 268 L 900 273 L 890 277 L 880 276 L 873 272 L 868 266 L 865 258 L 865 231 L 862 219 L 856 208 L 846 198 L 837 193 L 827 190 Z M653 383 L 655 384 L 659 401 L 661 404 L 669 427 L 671 430 L 676 447 L 676 452 L 677 453 L 677 468 L 676 469 L 676 473 L 674 479 L 656 506 L 655 506 L 646 496 L 605 443 L 605 441 Z M681 824 L 681 845 L 680 846 L 680 864 L 679 865 L 679 882 L 678 883 L 678 900 L 677 901 L 677 919 L 676 921 L 682 928 L 688 937 L 690 942 L 691 942 L 697 934 L 714 919 L 719 916 L 721 916 L 723 914 L 725 914 L 731 911 L 734 911 L 737 909 L 738 892 L 684 828 L 683 825 Z" fill="#000000" fill-rule="evenodd"/></svg>