<?xml version="1.0" encoding="UTF-8"?>
<svg xmlns="http://www.w3.org/2000/svg" width="979" height="1139" viewBox="0 0 979 1139">
  <title>cowboy and cowgirl restroom icons</title>
  <path d="M 130 271 L 107 283 L 90 302 L 25 432 L 26 452 L 95 581 L 113 603 L 130 601 L 101 891 L 138 930 L 194 888 L 235 643 L 274 887 L 332 930 L 366 892 L 338 603 L 357 600 L 375 575 L 441 452 L 441 428 L 376 301 L 349 276 L 327 269 Z M 672 292 L 652 299 L 634 314 L 551 433 L 550 447 L 556 461 L 635 542 L 557 704 L 608 730 L 667 738 L 691 823 L 771 920 L 793 932 L 797 903 L 815 873 L 790 832 L 758 799 L 785 738 L 859 728 L 907 705 L 833 550 L 788 477 L 786 451 L 803 402 L 828 484 L 887 612 L 903 626 L 907 622 L 903 604 L 940 612 L 950 609 L 953 600 L 903 565 L 869 458 L 839 334 L 826 310 L 806 296 L 785 291 Z M 80 98 L 81 108 L 86 119 L 100 134 L 125 149 L 158 160 L 156 174 L 157 192 L 162 209 L 175 230 L 188 242 L 206 252 L 220 256 L 237 257 L 254 254 L 269 248 L 280 241 L 293 228 L 303 212 L 309 193 L 310 172 L 308 160 L 337 150 L 362 134 L 370 126 L 380 110 L 382 92 L 373 81 L 359 80 L 352 82 L 336 91 L 305 116 L 287 127 L 265 135 L 248 138 L 215 137 L 185 128 L 165 117 L 125 87 L 105 79 L 98 79 L 88 83 L 83 89 Z M 873 113 L 866 102 L 860 100 L 851 101 L 836 108 L 793 141 L 768 152 L 741 157 L 713 156 L 684 148 L 658 133 L 630 111 L 616 105 L 605 105 L 598 110 L 595 116 L 595 128 L 604 147 L 618 161 L 636 172 L 659 180 L 658 208 L 660 217 L 669 238 L 684 256 L 695 264 L 710 271 L 723 274 L 743 274 L 768 266 L 786 253 L 793 245 L 804 226 L 808 213 L 808 179 L 841 165 L 859 150 L 871 131 Z M 87 894 L 84 897 L 90 1008 L 88 1035 L 80 1052 L 71 1065 L 58 1077 L 33 1090 L 29 1097 L 29 1105 L 38 1109 L 58 1112 L 101 1111 L 115 1105 L 137 1084 L 139 1085 L 141 1106 L 173 1105 L 182 1061 L 182 1044 L 177 1025 L 201 897 L 196 895 L 182 903 L 136 941 L 98 898 L 92 894 Z M 382 894 L 373 896 L 356 913 L 333 941 L 288 904 L 276 896 L 272 895 L 268 897 L 292 1025 L 287 1045 L 287 1060 L 294 1102 L 296 1105 L 329 1105 L 329 1088 L 331 1085 L 355 1106 L 368 1111 L 388 1113 L 411 1112 L 430 1109 L 440 1105 L 440 1097 L 432 1087 L 414 1079 L 397 1064 L 390 1054 L 380 1032 L 379 1012 L 385 897 Z M 657 917 L 655 919 L 655 929 L 664 994 L 665 1024 L 658 1045 L 649 1063 L 639 1075 L 617 1090 L 613 1097 L 612 1104 L 616 1108 L 634 1112 L 662 1112 L 671 1110 L 682 1105 L 707 1079 L 709 1080 L 709 1104 L 732 1104 L 734 1102 L 741 1057 L 741 1040 L 733 1019 L 732 1011 L 746 921 L 744 918 L 739 917 L 721 924 L 710 932 L 689 956 L 673 929 L 664 919 Z M 834 876 L 829 876 L 822 880 L 809 896 L 801 918 L 800 944 L 771 929 L 766 928 L 763 931 L 815 996 L 823 1009 L 828 1035 L 829 1059 L 826 1069 L 814 1090 L 814 1101 L 818 1107 L 824 1107 L 833 1104 L 849 1096 L 867 1083 L 874 1075 L 879 1064 L 882 1028 L 885 1026 L 895 1036 L 900 1038 L 914 1018 L 912 1011 L 892 976 L 874 961 Z M 181 40 L 172 62 L 169 78 L 168 79 L 167 89 L 166 90 L 165 102 L 164 103 L 164 107 L 166 109 L 179 117 L 192 123 L 210 128 L 224 129 L 225 130 L 239 130 L 240 129 L 250 129 L 251 128 L 260 127 L 276 122 L 292 114 L 302 107 L 302 99 L 301 98 L 301 93 L 300 92 L 298 78 L 290 50 L 282 35 L 275 28 L 269 25 L 260 25 L 253 28 L 240 36 L 229 37 L 223 35 L 205 25 L 197 25 L 192 27 L 185 34 Z M 782 55 L 775 47 L 769 44 L 760 44 L 739 56 L 728 56 L 711 47 L 708 47 L 707 46 L 699 48 L 695 51 L 687 62 L 681 75 L 674 99 L 674 103 L 673 104 L 669 127 L 678 133 L 693 140 L 699 141 L 703 143 L 707 143 L 713 145 L 720 145 L 721 146 L 743 146 L 744 145 L 756 144 L 773 139 L 788 132 L 799 124 L 799 119 L 797 112 L 795 94 L 794 93 L 794 89 L 793 88 L 790 73 Z M 818 190 L 819 202 L 814 226 L 804 246 L 793 259 L 793 273 L 796 284 L 810 288 L 825 297 L 838 311 L 843 320 L 845 327 L 850 330 L 864 333 L 872 333 L 891 328 L 903 319 L 909 310 L 910 303 L 899 308 L 888 308 L 878 304 L 875 300 L 891 296 L 902 286 L 906 277 L 906 268 L 900 273 L 890 277 L 880 276 L 873 272 L 868 266 L 865 258 L 865 231 L 862 219 L 856 208 L 846 198 L 837 193 L 827 190 Z M 185 542 L 186 541 L 195 541 L 201 535 L 209 531 L 219 528 L 224 528 L 225 527 L 239 527 L 240 528 L 245 528 L 255 531 L 264 536 L 269 541 L 278 541 L 279 542 L 279 545 L 278 546 L 273 546 L 277 556 L 277 566 L 273 576 L 278 576 L 279 577 L 279 580 L 275 582 L 268 582 L 262 587 L 254 591 L 244 594 L 237 594 L 236 595 L 227 595 L 226 594 L 220 594 L 219 593 L 212 592 L 205 589 L 195 581 L 193 582 L 186 582 L 185 581 L 185 577 L 186 576 L 191 576 L 187 567 L 187 555 L 190 546 L 186 546 L 185 545 Z M 337 381 L 378 441 L 378 443 L 336 532 L 315 544 L 304 554 L 304 560 L 308 564 L 319 565 L 319 574 L 321 580 L 334 594 L 335 597 L 332 598 L 323 592 L 316 582 L 290 581 L 291 576 L 313 576 L 313 571 L 304 569 L 297 560 L 297 554 L 301 546 L 291 546 L 290 542 L 308 541 L 327 527 L 335 382 Z M 653 383 L 655 384 L 659 401 L 661 404 L 669 427 L 671 430 L 676 447 L 676 452 L 677 453 L 677 468 L 676 469 L 676 473 L 674 479 L 656 506 L 655 506 L 646 496 L 605 443 L 605 441 Z M 129 381 L 131 382 L 139 528 L 159 541 L 174 542 L 173 546 L 164 546 L 168 553 L 168 560 L 166 564 L 160 570 L 152 571 L 152 576 L 173 576 L 174 581 L 149 582 L 146 588 L 134 598 L 132 597 L 133 593 L 146 577 L 147 565 L 155 565 L 159 563 L 162 559 L 162 554 L 150 543 L 131 531 L 89 444 L 90 439 Z M 681 824 L 681 845 L 680 846 L 680 864 L 679 865 L 679 882 L 678 883 L 678 900 L 677 901 L 677 919 L 676 921 L 682 928 L 688 937 L 690 942 L 691 942 L 697 934 L 714 919 L 719 916 L 721 916 L 723 914 L 725 914 L 731 911 L 734 911 L 737 909 L 738 892 L 684 828 L 683 825 Z M 200 558 L 200 563 L 202 569 L 209 576 L 221 581 L 227 581 L 228 582 L 235 582 L 236 581 L 247 580 L 256 575 L 260 571 L 263 565 L 263 556 L 259 549 L 254 545 L 241 540 L 222 540 L 209 545 L 203 551 Z" fill="#000000" fill-rule="evenodd"/>
</svg>
