<svg xmlns="http://www.w3.org/2000/svg" width="410" height="1082" viewBox="519 88 410 1082"><path d="M789 334 L 644 334 L 611 346 L 592 364 L 576 400 L 519 673 L 520 690 L 535 705 L 556 705 L 570 693 L 630 463 L 645 509 L 645 530 L 602 636 L 557 790 L 568 799 L 656 799 L 666 853 L 630 960 L 620 959 L 615 965 L 612 1002 L 601 1004 L 597 1041 L 579 1072 L 569 1101 L 574 1110 L 582 1112 L 594 1100 L 605 1137 L 624 1155 L 646 1167 L 655 1166 L 661 1157 L 645 1118 L 648 1072 L 673 1043 L 668 1032 L 691 1004 L 691 998 L 682 991 L 739 860 L 743 800 L 865 799 L 875 791 L 837 655 L 787 529 L 787 510 L 808 443 L 859 497 L 814 564 L 835 619 L 918 525 L 929 503 L 924 477 L 837 361 L 812 341 Z M657 108 L 631 143 L 624 178 L 673 165 L 719 165 L 774 180 L 797 192 L 800 202 L 744 180 L 707 174 L 662 177 L 627 189 L 621 214 L 595 257 L 605 296 L 587 325 L 589 348 L 631 326 L 680 323 L 680 306 L 660 294 L 636 262 L 631 237 L 638 222 L 645 254 L 656 274 L 681 295 L 707 303 L 736 301 L 764 287 L 787 257 L 795 223 L 802 239 L 801 250 L 813 254 L 821 265 L 821 290 L 813 301 L 797 305 L 778 289 L 753 306 L 753 323 L 792 324 L 821 334 L 843 352 L 888 409 L 897 388 L 895 360 L 890 350 L 866 330 L 864 289 L 857 277 L 825 248 L 812 210 L 819 207 L 846 242 L 888 257 L 874 221 L 853 206 L 828 199 L 826 194 L 876 194 L 904 179 L 908 172 L 864 160 L 849 163 L 822 181 L 811 179 L 805 148 L 791 122 L 768 102 L 745 92 L 723 88 L 696 90 Z M753 809 L 751 851 L 747 869 L 703 969 L 706 1050 L 691 1054 L 704 1093 L 701 1113 L 703 1141 L 708 1165 L 711 1169 L 727 1168 L 730 1146 L 755 1164 L 768 1168 L 795 1170 L 826 1167 L 833 1161 L 832 1149 L 824 1143 L 801 1138 L 789 1131 L 776 1118 L 766 1095 L 778 1056 L 776 1052 L 763 1051 L 762 1048 L 777 896 L 781 809 Z M798 259 L 794 268 L 787 278 L 786 283 L 789 289 L 795 295 L 797 296 L 804 296 L 806 295 L 813 287 L 815 280 L 815 276 L 814 275 L 814 271 L 811 265 L 804 259 Z" fill="#000000" fill-rule="evenodd"/></svg>