<?xml version="1.0" encoding="UTF-8"?>
<svg xmlns="http://www.w3.org/2000/svg" width="955" height="1196" viewBox="0 0 955 1196">
  <title>pirate restroom markers in silhouette</title>
  <path d="M 116 335 L 91 345 L 76 358 L 65 377 L 60 401 L 60 678 L 67 695 L 85 706 L 109 702 L 124 680 L 124 448 L 131 444 L 135 449 L 135 682 L 77 765 L 69 784 L 67 819 L 76 870 L 103 871 L 157 859 L 156 805 L 233 712 L 242 716 L 242 1134 L 249 1151 L 265 1165 L 282 1170 L 301 1169 L 327 1152 L 335 1134 L 335 442 L 343 438 L 403 506 L 346 598 L 346 646 L 356 656 L 371 656 L 382 648 L 470 530 L 477 515 L 478 498 L 470 479 L 384 361 L 356 339 L 337 334 L 293 334 L 278 353 L 273 351 L 260 365 L 228 383 L 212 371 L 206 372 L 184 350 L 180 352 L 165 334 Z M 789 334 L 644 334 L 611 346 L 592 364 L 576 400 L 519 673 L 520 690 L 535 705 L 556 705 L 570 693 L 630 463 L 645 509 L 645 530 L 602 636 L 557 790 L 568 799 L 656 799 L 666 853 L 630 960 L 620 959 L 615 965 L 612 1002 L 601 1004 L 597 1041 L 579 1072 L 569 1101 L 574 1110 L 582 1112 L 594 1100 L 605 1137 L 624 1155 L 646 1167 L 655 1166 L 661 1157 L 645 1118 L 648 1072 L 673 1043 L 668 1032 L 691 1004 L 691 998 L 682 991 L 739 860 L 743 800 L 865 799 L 875 791 L 837 655 L 787 529 L 787 510 L 808 443 L 859 497 L 814 564 L 835 619 L 918 525 L 929 503 L 924 477 L 837 361 L 812 341 Z M 657 108 L 631 143 L 624 178 L 673 165 L 719 165 L 774 180 L 797 192 L 800 202 L 744 180 L 707 174 L 662 177 L 627 189 L 621 214 L 595 257 L 605 296 L 587 325 L 589 348 L 631 326 L 680 323 L 680 306 L 660 294 L 636 262 L 631 237 L 638 222 L 645 254 L 656 274 L 681 295 L 707 303 L 736 301 L 764 287 L 787 257 L 795 223 L 802 239 L 801 250 L 813 254 L 821 265 L 821 290 L 813 301 L 797 305 L 778 289 L 753 306 L 753 323 L 792 324 L 821 334 L 843 352 L 888 409 L 897 388 L 895 360 L 890 350 L 866 330 L 864 289 L 857 277 L 825 248 L 812 210 L 819 207 L 846 242 L 888 257 L 874 221 L 853 206 L 828 199 L 826 194 L 876 194 L 904 179 L 908 172 L 864 160 L 849 163 L 822 181 L 811 179 L 805 148 L 791 122 L 768 102 L 745 92 L 723 88 L 696 90 Z M 73 139 L 72 146 L 78 160 L 94 179 L 127 199 L 145 200 L 141 220 L 142 238 L 147 256 L 157 275 L 169 269 L 159 251 L 154 228 L 156 206 L 163 189 L 169 188 L 194 202 L 229 215 L 234 235 L 243 244 L 255 249 L 276 248 L 288 240 L 295 228 L 304 228 L 301 249 L 290 268 L 302 275 L 317 238 L 318 219 L 315 201 L 332 199 L 359 184 L 377 166 L 388 144 L 383 136 L 354 131 L 336 120 L 319 100 L 292 56 L 276 41 L 259 31 L 231 25 L 209 28 L 184 40 L 166 57 L 137 104 L 123 120 L 105 131 L 76 136 Z M 753 809 L 751 851 L 747 869 L 703 969 L 706 1050 L 691 1054 L 704 1093 L 701 1113 L 703 1141 L 708 1165 L 711 1169 L 727 1168 L 730 1146 L 755 1164 L 768 1168 L 795 1170 L 826 1167 L 833 1161 L 832 1149 L 824 1143 L 801 1138 L 789 1131 L 776 1118 L 766 1095 L 778 1056 L 776 1052 L 763 1051 L 762 1048 L 777 896 L 781 809 Z M 35 1050 L 29 1067 L 26 1082 L 25 1117 L 28 1133 L 38 1163 L 44 1168 L 171 1168 L 177 1163 L 186 1137 L 190 1114 L 190 1091 L 188 1077 L 181 1051 L 177 1047 L 174 1046 L 155 1046 L 154 1047 L 152 1046 L 116 1046 L 115 1047 L 48 1046 L 38 1047 Z M 171 867 L 168 866 L 125 878 L 97 882 L 68 883 L 63 886 L 62 891 L 70 942 L 74 946 L 84 946 L 87 948 L 93 983 L 90 989 L 81 997 L 51 1008 L 43 1013 L 36 1024 L 36 1032 L 39 1036 L 109 1037 L 144 1024 L 147 1026 L 148 1035 L 150 1037 L 170 1037 L 172 1035 L 177 1014 L 177 999 L 173 980 L 170 932 L 182 926 L 183 917 L 175 875 Z M 141 280 L 142 285 L 150 293 L 160 298 L 160 303 L 164 315 L 177 336 L 181 339 L 182 336 L 185 335 L 192 347 L 205 360 L 207 361 L 211 360 L 214 363 L 224 368 L 228 372 L 230 372 L 239 365 L 255 357 L 265 347 L 270 337 L 276 342 L 290 323 L 296 310 L 298 299 L 311 291 L 318 282 L 317 280 L 305 283 L 294 281 L 284 275 L 271 262 L 263 256 L 250 252 L 239 254 L 232 258 L 230 261 L 218 253 L 212 252 L 204 253 L 193 258 L 176 274 L 167 280 L 156 283 Z M 225 55 L 234 55 L 244 58 L 254 66 L 258 75 L 258 87 L 256 93 L 253 97 L 253 104 L 251 106 L 245 108 L 243 110 L 243 114 L 240 117 L 235 119 L 224 119 L 219 117 L 216 114 L 215 109 L 208 106 L 206 104 L 206 97 L 203 93 L 201 87 L 201 74 L 205 66 L 215 58 Z M 181 183 L 183 181 L 189 180 L 193 178 L 208 176 L 209 175 L 217 175 L 218 174 L 241 174 L 242 175 L 250 175 L 251 176 L 256 176 L 257 177 L 261 177 L 262 178 L 273 180 L 292 188 L 294 188 L 298 191 L 303 205 L 305 217 L 304 218 L 296 218 L 294 212 L 291 209 L 286 207 L 277 207 L 276 206 L 264 205 L 263 204 L 259 204 L 245 200 L 239 200 L 237 201 L 233 206 L 228 205 L 209 197 L 207 197 L 200 193 L 198 193 L 182 185 Z M 189 108 L 193 105 L 196 105 L 200 108 L 201 113 L 204 116 L 228 127 L 230 127 L 256 115 L 258 109 L 263 105 L 268 106 L 270 108 L 270 115 L 275 119 L 275 123 L 270 127 L 265 127 L 262 125 L 258 125 L 241 132 L 241 133 L 253 137 L 258 140 L 261 140 L 266 137 L 271 138 L 274 141 L 274 146 L 269 150 L 270 152 L 269 157 L 266 159 L 261 159 L 257 155 L 255 149 L 234 139 L 228 138 L 204 149 L 202 151 L 201 156 L 198 159 L 191 158 L 189 154 L 190 150 L 185 146 L 185 141 L 190 137 L 193 137 L 198 140 L 201 140 L 206 137 L 215 134 L 217 132 L 201 125 L 197 125 L 194 127 L 186 126 L 184 123 L 184 119 L 189 115 Z M 178 300 L 179 299 L 190 298 L 206 293 L 218 287 L 228 278 L 230 278 L 238 285 L 251 292 L 270 298 L 280 299 L 281 301 L 277 303 L 265 304 L 264 303 L 259 303 L 255 301 L 250 301 L 239 294 L 219 294 L 216 297 L 209 301 L 201 302 L 200 303 L 195 303 L 194 304 L 182 303 L 179 302 Z M 798 259 L 794 268 L 787 278 L 786 283 L 789 289 L 795 295 L 797 296 L 804 296 L 806 295 L 813 287 L 815 280 L 815 276 L 814 275 L 814 271 L 811 265 L 804 259 Z M 237 85 L 234 88 L 234 95 L 238 99 L 245 99 L 247 98 L 249 94 L 248 88 L 245 85 L 242 84 Z M 222 85 L 217 84 L 214 85 L 210 90 L 210 95 L 214 99 L 220 99 L 225 95 L 225 88 Z M 229 98 L 227 100 L 225 105 L 226 106 L 233 106 L 233 102 L 232 100 Z" fill="#000000" fill-rule="evenodd"/>
</svg>
