<svg xmlns="http://www.w3.org/2000/svg" width="341" height="921" viewBox="508 26 341 921"><path d="M578 488 L 508 675 L 544 693 L 605 708 L 602 723 L 608 758 L 636 818 L 712 933 L 731 946 L 749 945 L 768 927 L 768 904 L 682 774 L 668 743 L 663 714 L 675 714 L 682 751 L 704 790 L 720 808 L 733 770 L 745 710 L 803 696 L 848 676 L 849 669 L 783 500 L 782 483 L 774 486 L 751 525 L 722 562 L 701 582 L 679 591 L 658 586 L 631 562 Z M584 262 L 563 272 L 547 294 L 542 320 L 546 362 L 561 419 L 583 472 L 613 523 L 639 555 L 669 513 L 644 478 L 623 438 L 605 387 L 598 346 L 604 343 L 608 347 L 619 396 L 634 436 L 675 503 L 690 488 L 711 454 L 731 410 L 747 347 L 751 343 L 757 347 L 748 393 L 719 462 L 653 551 L 654 566 L 663 577 L 683 580 L 697 572 L 727 540 L 778 457 L 808 366 L 813 328 L 810 299 L 804 285 L 788 269 L 766 261 L 739 260 L 731 264 L 681 337 L 676 338 L 623 263 Z M796 37 L 774 26 L 750 27 L 734 35 L 725 44 L 714 67 L 688 61 L 659 63 L 633 73 L 613 90 L 602 106 L 593 129 L 591 169 L 601 200 L 622 226 L 652 242 L 683 246 L 715 239 L 742 222 L 760 198 L 766 175 L 738 174 L 710 166 L 684 150 L 660 122 L 624 143 L 604 148 L 593 146 L 599 138 L 613 136 L 636 126 L 661 105 L 679 131 L 702 150 L 735 163 L 769 165 L 768 130 L 758 104 L 740 82 L 716 65 L 723 60 L 744 72 L 765 96 L 776 122 L 784 122 L 804 106 L 813 86 L 811 59 Z M645 853 L 642 854 L 639 860 L 639 862 L 633 874 L 631 881 L 620 904 L 618 910 L 618 923 L 622 933 L 627 939 L 637 945 L 649 947 L 663 943 L 674 933 L 684 909 L 649 856 Z" fill="#000000" fill-rule="evenodd"/></svg>