<?xml version="1.0" encoding="UTF-8"?>
<svg xmlns="http://www.w3.org/2000/svg" width="875" height="974" viewBox="0 0 875 974">
  <title>playful restroom silhouettes with personality</title>
  <path d="M 321 258 L 291 257 L 284 264 L 252 412 L 242 443 L 230 460 L 216 460 L 204 443 L 185 376 L 162 265 L 154 257 L 117 260 L 92 277 L 27 409 L 25 431 L 30 444 L 120 560 L 122 474 L 91 420 L 116 371 L 122 370 L 136 700 L 146 743 L 165 783 L 173 775 L 215 692 L 217 574 L 220 569 L 228 573 L 228 679 L 224 698 L 117 902 L 122 931 L 144 947 L 167 946 L 185 933 L 289 754 L 305 716 L 310 681 L 323 370 L 329 370 L 352 420 L 324 473 L 325 560 L 334 553 L 417 433 L 415 408 L 361 288 L 344 268 Z M 578 488 L 508 675 L 544 693 L 605 708 L 602 723 L 608 758 L 636 818 L 712 933 L 731 946 L 749 945 L 768 927 L 768 904 L 682 774 L 668 743 L 663 714 L 675 714 L 682 751 L 704 790 L 720 808 L 733 770 L 745 710 L 803 696 L 848 676 L 849 669 L 783 500 L 782 483 L 774 486 L 751 525 L 722 562 L 701 582 L 679 591 L 658 586 L 631 562 Z M 584 262 L 563 272 L 547 294 L 542 320 L 546 362 L 561 419 L 583 472 L 613 523 L 639 555 L 669 513 L 644 478 L 623 438 L 605 387 L 598 346 L 604 343 L 608 347 L 619 396 L 634 436 L 675 503 L 690 488 L 711 454 L 731 410 L 747 347 L 751 343 L 757 347 L 748 393 L 719 462 L 653 551 L 654 566 L 663 577 L 683 580 L 697 572 L 727 540 L 778 457 L 808 366 L 813 328 L 810 299 L 804 285 L 788 269 L 766 261 L 739 260 L 731 264 L 681 337 L 676 338 L 623 263 Z M 796 37 L 774 26 L 750 27 L 734 35 L 725 44 L 714 67 L 688 61 L 659 63 L 633 73 L 613 90 L 602 106 L 593 129 L 591 169 L 601 200 L 622 226 L 652 242 L 683 246 L 715 239 L 742 222 L 760 198 L 766 175 L 738 174 L 710 166 L 684 150 L 660 122 L 624 143 L 604 148 L 593 146 L 599 138 L 613 136 L 636 126 L 661 105 L 679 131 L 702 150 L 735 163 L 769 165 L 768 130 L 758 104 L 740 82 L 716 65 L 723 60 L 744 72 L 765 96 L 776 122 L 784 122 L 804 106 L 813 86 L 811 59 Z M 213 48 L 190 54 L 178 60 L 164 70 L 151 84 L 139 105 L 134 120 L 131 144 L 132 160 L 137 179 L 146 197 L 153 207 L 171 224 L 191 235 L 200 238 L 220 241 L 240 240 L 257 235 L 271 228 L 281 221 L 297 204 L 307 188 L 314 169 L 316 158 L 316 131 L 311 110 L 302 91 L 295 81 L 281 67 L 269 59 L 250 51 L 235 48 Z M 266 812 L 238 862 L 222 888 L 220 893 L 239 931 L 244 937 L 252 943 L 262 947 L 265 947 L 266 948 L 278 948 L 292 943 L 304 932 L 309 922 L 310 914 L 311 913 L 311 907 L 310 906 L 310 901 L 308 894 L 280 839 L 280 837 L 278 835 L 273 825 L 271 819 L 269 817 L 267 812 Z M 645 853 L 642 854 L 639 860 L 639 862 L 633 874 L 631 881 L 620 904 L 618 910 L 618 923 L 622 933 L 627 939 L 637 945 L 649 947 L 663 943 L 674 933 L 684 909 L 649 856 Z M 159 178 L 165 171 L 169 170 L 171 173 L 167 176 L 167 182 L 168 184 L 172 187 L 180 187 L 187 183 L 201 168 L 205 166 L 215 165 L 218 166 L 223 170 L 225 170 L 232 165 L 240 165 L 249 170 L 262 184 L 268 187 L 276 187 L 281 183 L 282 180 L 281 176 L 278 174 L 277 172 L 279 170 L 283 171 L 289 178 L 289 186 L 287 190 L 279 197 L 266 201 L 253 201 L 252 200 L 243 199 L 231 194 L 225 188 L 223 188 L 215 195 L 205 199 L 196 200 L 195 201 L 182 201 L 181 200 L 173 199 L 167 196 L 161 190 L 159 186 Z M 182 258 L 182 276 L 181 277 L 181 284 L 182 285 L 182 304 L 185 307 L 189 307 L 215 290 L 219 292 L 227 292 L 231 290 L 236 294 L 258 307 L 261 307 L 264 304 L 264 259 L 263 257 L 258 256 L 236 269 L 231 273 L 227 271 L 219 271 L 215 273 L 188 256 L 185 256 Z" fill="#000000" fill-rule="evenodd"/>
</svg>
