<svg xmlns="http://www.w3.org/2000/svg" width="392" height="900" viewBox="25 48 392 900"><path d="M321 258 L 291 257 L 284 264 L 252 412 L 242 443 L 230 460 L 216 460 L 204 443 L 185 376 L 162 265 L 154 257 L 117 260 L 92 277 L 27 409 L 25 431 L 30 444 L 120 560 L 122 474 L 91 420 L 116 371 L 122 370 L 136 700 L 146 743 L 165 783 L 173 775 L 215 692 L 217 574 L 220 569 L 228 573 L 228 679 L 224 698 L 117 902 L 122 931 L 144 947 L 167 946 L 185 933 L 289 754 L 305 716 L 310 681 L 323 370 L 329 370 L 352 420 L 324 473 L 325 560 L 334 553 L 417 433 L 415 408 L 361 288 L 344 268 Z M213 48 L 190 54 L 178 60 L 164 70 L 151 84 L 139 105 L 134 120 L 131 144 L 132 160 L 137 179 L 146 197 L 153 207 L 171 224 L 191 235 L 200 238 L 220 241 L 240 240 L 257 235 L 271 228 L 281 221 L 297 204 L 307 188 L 314 169 L 316 158 L 316 131 L 311 110 L 302 91 L 295 81 L 281 67 L 269 59 L 250 51 L 235 48 Z M266 812 L 238 862 L 222 888 L 220 893 L 239 931 L 244 937 L 252 943 L 262 947 L 265 947 L 266 948 L 278 948 L 292 943 L 304 932 L 309 922 L 310 914 L 311 913 L 311 907 L 310 906 L 310 901 L 308 894 L 280 839 L 280 837 L 278 835 L 273 825 L 271 819 L 269 817 L 267 812 Z M159 178 L 165 171 L 169 170 L 171 173 L 167 176 L 167 182 L 168 184 L 172 187 L 180 187 L 187 183 L 201 168 L 205 166 L 215 165 L 218 166 L 223 170 L 225 170 L 232 165 L 240 165 L 249 170 L 262 184 L 268 187 L 276 187 L 281 183 L 282 180 L 281 176 L 278 174 L 277 172 L 279 170 L 283 171 L 289 178 L 289 186 L 287 190 L 279 197 L 266 201 L 253 201 L 252 200 L 243 199 L 231 194 L 225 188 L 223 188 L 215 195 L 205 199 L 196 200 L 195 201 L 182 201 L 181 200 L 173 199 L 167 196 L 161 190 L 159 186 Z M182 258 L 182 276 L 181 277 L 181 284 L 182 285 L 182 304 L 185 307 L 189 307 L 215 290 L 219 292 L 227 292 L 231 290 L 236 294 L 258 307 L 261 307 L 264 304 L 264 259 L 263 257 L 258 256 L 236 269 L 231 273 L 227 271 L 219 271 L 215 273 L 188 256 L 185 256 Z" fill="#000000" fill-rule="evenodd"/></svg>