<svg xmlns="http://www.w3.org/2000/svg" width="309" height="1012" viewBox="25 25 309 1012"><path d="M82 370 L 62 378 L 40 397 L 25 433 L 25 662 L 36 679 L 49 684 L 69 679 L 79 666 L 81 475 L 91 472 L 95 1009 L 103 1025 L 123 1037 L 144 1037 L 156 1032 L 171 1012 L 172 683 L 182 677 L 186 681 L 187 1009 L 194 1024 L 206 1034 L 236 1037 L 257 1023 L 264 1007 L 264 477 L 270 471 L 278 476 L 279 664 L 290 679 L 310 684 L 324 678 L 334 662 L 333 427 L 325 406 L 312 389 L 278 370 Z M118 224 L 111 234 L 103 253 L 101 262 L 101 286 L 105 302 L 112 316 L 121 328 L 132 338 L 141 344 L 157 351 L 171 354 L 191 354 L 210 349 L 220 344 L 233 335 L 246 321 L 254 307 L 258 296 L 261 281 L 261 268 L 258 252 L 253 239 L 247 229 L 239 220 L 122 220 Z M68 81 L 67 90 L 70 96 L 82 101 L 101 191 L 260 191 L 279 103 L 281 100 L 289 98 L 295 88 L 294 82 L 289 76 L 285 74 L 274 76 L 269 82 L 269 92 L 274 99 L 223 136 L 183 53 L 191 47 L 194 41 L 192 31 L 183 25 L 172 28 L 168 34 L 168 43 L 178 54 L 138 136 L 88 99 L 93 90 L 93 84 L 89 77 L 77 74 Z M100 198 L 100 209 L 101 211 L 105 214 L 257 214 L 261 211 L 261 198 L 260 197 L 103 197 Z M180 140 L 184 143 L 195 160 L 195 163 L 181 183 L 179 182 L 166 162 L 166 160 Z M127 151 L 130 153 L 137 164 L 137 167 L 128 179 L 125 178 L 117 166 L 117 164 L 123 155 Z M233 151 L 236 152 L 244 164 L 243 168 L 235 179 L 232 178 L 224 166 L 224 164 Z" fill="#000000" fill-rule="evenodd"/></svg>