<svg xmlns="http://www.w3.org/2000/svg" width="359" height="991" viewBox="424 46 359 991"><path d="M545 375 L 514 390 L 494 417 L 426 630 L 424 649 L 432 662 L 444 668 L 461 666 L 473 655 L 527 483 L 532 481 L 526 538 L 450 788 L 459 800 L 533 801 L 533 1011 L 540 1026 L 559 1037 L 581 1033 L 596 1011 L 596 801 L 610 801 L 610 1008 L 614 1021 L 624 1032 L 647 1037 L 668 1024 L 674 1008 L 674 801 L 748 800 L 756 792 L 681 539 L 674 502 L 675 481 L 680 484 L 736 658 L 752 668 L 769 666 L 782 652 L 783 637 L 713 418 L 700 397 L 683 383 L 662 375 Z M531 251 L 526 269 L 525 285 L 526 286 L 527 298 L 530 308 L 541 328 L 551 339 L 563 348 L 577 355 L 593 359 L 619 358 L 635 353 L 650 344 L 663 332 L 671 321 L 680 300 L 681 288 L 682 287 L 682 275 L 681 274 L 680 262 L 672 242 L 668 237 L 539 237 Z M476 118 L 478 128 L 483 132 L 492 134 L 514 196 L 694 196 L 716 134 L 728 130 L 732 123 L 731 115 L 726 110 L 714 110 L 708 117 L 711 131 L 704 137 L 672 154 L 644 158 L 632 124 L 607 77 L 608 74 L 615 70 L 618 64 L 617 53 L 609 46 L 597 47 L 591 54 L 590 64 L 601 77 L 579 117 L 564 158 L 549 157 L 528 151 L 505 138 L 497 131 L 500 125 L 500 117 L 492 109 L 482 110 Z M514 203 L 514 225 L 519 230 L 541 230 L 542 231 L 581 231 L 582 230 L 606 230 L 607 231 L 616 231 L 617 230 L 647 231 L 648 230 L 653 230 L 654 231 L 659 231 L 660 230 L 674 230 L 675 231 L 683 231 L 684 230 L 691 229 L 693 227 L 695 222 L 694 203 L 681 203 L 680 202 L 672 202 L 671 203 L 599 203 L 598 202 L 596 203 L 561 203 L 560 202 L 557 203 Z M603 130 L 607 133 L 616 148 L 620 160 L 620 167 L 617 174 L 612 179 L 607 181 L 601 181 L 596 179 L 591 174 L 588 168 L 588 158 L 590 152 Z M603 206 L 605 206 L 615 216 L 605 227 L 603 227 L 593 217 Z" fill="#000000" fill-rule="evenodd"/></svg>