<?xml version="1.0" encoding="UTF-8"?>
<svg xmlns="http://www.w3.org/2000/svg" width="1079" height="935" viewBox="0 0 1079 935">
  <title>superheroes in minimal silhouette form</title>
  <path d="M 231 185 L 229 197 L 175 198 L 151 208 L 70 302 L 63 318 L 63 332 L 72 350 L 161 435 L 177 442 L 187 440 L 200 426 L 203 406 L 139 325 L 184 281 L 187 284 L 211 404 L 203 600 L 204 880 L 222 903 L 250 909 L 273 898 L 285 878 L 287 531 L 296 526 L 300 531 L 301 875 L 309 893 L 320 903 L 348 909 L 365 903 L 377 892 L 385 870 L 384 559 L 377 404 L 401 285 L 406 282 L 449 324 L 385 407 L 391 432 L 403 441 L 425 437 L 519 346 L 525 319 L 518 302 L 441 211 L 425 201 L 359 197 L 359 187 L 353 185 L 293 202 Z M 741 204 L 739 216 L 698 219 L 669 236 L 590 323 L 581 350 L 592 372 L 674 445 L 690 447 L 701 437 L 709 412 L 653 344 L 697 297 L 727 398 L 652 603 L 714 604 L 721 881 L 727 896 L 746 908 L 770 904 L 784 885 L 785 607 L 790 603 L 798 607 L 798 879 L 803 894 L 813 904 L 837 908 L 856 896 L 862 882 L 869 605 L 932 603 L 857 400 L 864 363 L 888 296 L 935 345 L 875 412 L 886 440 L 902 447 L 917 439 L 996 365 L 1004 352 L 1004 337 L 994 319 L 922 238 L 901 222 L 884 217 L 845 216 L 844 204 L 795 219 Z M 135 428 L 123 480 L 97 549 L 72 598 L 25 669 L 50 670 L 74 675 L 93 682 L 145 708 L 161 712 L 180 712 L 191 709 L 192 526 L 196 451 L 184 454 L 165 452 L 155 446 Z M 971 153 L 958 157 L 951 156 L 938 145 L 932 127 L 933 77 L 930 60 L 917 39 L 908 32 L 892 26 L 872 26 L 854 33 L 839 47 L 831 62 L 802 52 L 783 52 L 768 56 L 753 64 L 739 77 L 728 95 L 724 108 L 724 137 L 728 150 L 736 164 L 756 183 L 783 193 L 803 193 L 828 184 L 845 170 L 855 156 L 862 138 L 863 114 L 858 95 L 847 78 L 848 75 L 860 78 L 871 90 L 875 101 L 876 128 L 881 148 L 889 161 L 902 172 L 916 177 L 941 175 L 956 168 Z M 940 436 L 914 456 L 904 459 L 893 458 L 945 603 L 944 610 L 935 616 L 881 616 L 878 718 L 893 722 L 907 723 L 927 719 L 945 709 L 970 690 L 994 679 L 1007 676 L 1034 676 L 1053 680 L 1014 613 L 981 549 L 957 493 Z M 452 429 L 432 447 L 425 451 L 415 454 L 405 454 L 393 450 L 396 539 L 397 710 L 417 707 L 451 689 L 465 685 L 487 684 L 506 688 L 502 645 L 494 599 L 478 530 L 456 452 Z M 289 33 L 278 35 L 261 42 L 251 49 L 240 60 L 235 67 L 226 88 L 224 99 L 224 114 L 227 129 L 234 145 L 241 155 L 250 164 L 258 170 L 270 176 L 284 180 L 298 181 L 299 180 L 312 179 L 324 175 L 337 168 L 352 154 L 360 142 L 365 131 L 368 119 L 369 103 L 368 102 L 368 94 L 362 75 L 354 62 L 344 51 L 333 43 L 314 35 L 303 33 Z M 660 451 L 651 486 L 632 537 L 562 695 L 589 690 L 611 691 L 637 699 L 674 719 L 685 722 L 704 722 L 702 616 L 648 616 L 641 611 L 639 606 L 690 461 L 675 459 Z" fill="#000000" fill-rule="evenodd"/>
</svg>
