<svg xmlns="http://www.w3.org/2000/svg" width="500" height="876" viewBox="25 33 500 876"><path d="M231 185 L 229 197 L 175 198 L 151 208 L 70 302 L 63 318 L 63 332 L 72 350 L 161 435 L 177 442 L 187 440 L 200 426 L 203 406 L 139 325 L 184 281 L 187 284 L 211 404 L 203 600 L 204 880 L 222 903 L 250 909 L 273 898 L 285 878 L 287 531 L 296 526 L 300 531 L 301 875 L 309 893 L 320 903 L 348 909 L 365 903 L 377 892 L 385 870 L 384 559 L 377 404 L 401 285 L 406 282 L 449 324 L 385 407 L 391 432 L 403 441 L 425 437 L 519 346 L 525 319 L 518 302 L 441 211 L 425 201 L 359 197 L 359 187 L 353 185 L 293 202 Z M135 428 L 123 480 L 97 549 L 72 598 L 25 669 L 50 670 L 74 675 L 93 682 L 145 708 L 161 712 L 180 712 L 191 709 L 192 526 L 196 451 L 184 454 L 165 452 L 155 446 Z M452 429 L 432 447 L 425 451 L 415 454 L 405 454 L 393 450 L 396 539 L 397 710 L 417 707 L 451 689 L 465 685 L 487 684 L 506 688 L 502 645 L 494 599 L 478 530 L 456 452 Z M289 33 L 278 35 L 261 42 L 251 49 L 240 60 L 235 67 L 226 88 L 224 99 L 224 114 L 227 129 L 234 145 L 241 155 L 250 164 L 258 170 L 270 176 L 284 180 L 298 181 L 299 180 L 312 179 L 324 175 L 337 168 L 352 154 L 360 142 L 365 131 L 368 119 L 369 103 L 368 102 L 368 94 L 362 75 L 354 62 L 344 51 L 333 43 L 314 35 L 303 33 Z" fill="#000000" fill-rule="evenodd"/></svg>