<svg xmlns="http://www.w3.org/2000/svg" width="491" height="882" viewBox="562 26 491 882"><path d="M741 204 L 739 216 L 698 219 L 669 236 L 590 323 L 581 350 L 592 372 L 674 445 L 690 447 L 701 437 L 709 412 L 653 344 L 697 297 L 727 398 L 652 603 L 714 604 L 721 881 L 727 896 L 746 908 L 770 904 L 784 885 L 785 607 L 790 603 L 798 607 L 798 879 L 803 894 L 813 904 L 837 908 L 856 896 L 862 882 L 869 605 L 932 603 L 857 400 L 864 363 L 888 296 L 935 345 L 875 412 L 886 440 L 902 447 L 917 439 L 996 365 L 1004 352 L 1004 337 L 994 319 L 922 238 L 901 222 L 884 217 L 845 216 L 844 204 L 795 219 Z M971 153 L 958 157 L 951 156 L 938 145 L 932 127 L 933 77 L 930 60 L 917 39 L 908 32 L 892 26 L 872 26 L 854 33 L 839 47 L 831 62 L 802 52 L 783 52 L 768 56 L 753 64 L 739 77 L 728 95 L 724 108 L 724 137 L 728 150 L 736 164 L 756 183 L 783 193 L 803 193 L 828 184 L 845 170 L 855 156 L 862 138 L 863 114 L 858 95 L 847 78 L 848 75 L 860 78 L 871 90 L 875 101 L 876 128 L 881 148 L 889 161 L 902 172 L 916 177 L 941 175 L 956 168 Z M940 436 L 914 456 L 904 459 L 893 458 L 945 603 L 944 610 L 935 616 L 881 616 L 878 718 L 893 722 L 907 723 L 927 719 L 945 709 L 970 690 L 994 679 L 1007 676 L 1034 676 L 1053 680 L 1014 613 L 981 549 L 957 493 Z M660 451 L 651 486 L 632 537 L 562 695 L 589 690 L 611 691 L 637 699 L 674 719 L 685 722 L 704 722 L 702 616 L 648 616 L 641 611 L 639 606 L 690 461 L 675 459 Z" fill="#000000" fill-rule="evenodd"/></svg>