<?xml version="1.0" encoding="UTF-8"?>
<svg xmlns="http://www.w3.org/2000/svg" width="925" height="1050" viewBox="0 0 925 1050">
  <title>urgent restroom request signs</title>
  <path d="M 824 467 L 758 603 L 741 616 L 722 619 L 699 610 L 682 589 L 651 540 L 613 462 L 550 663 L 553 670 L 631 685 L 638 692 L 660 771 L 646 992 L 653 1008 L 670 1021 L 688 1023 L 703 1018 L 715 1007 L 722 990 L 732 843 L 690 792 L 678 765 L 681 733 L 695 692 L 702 692 L 705 699 L 691 749 L 693 771 L 795 900 L 815 914 L 835 915 L 850 908 L 863 890 L 865 875 L 859 857 L 768 748 L 788 698 L 849 685 L 880 670 Z M 84 218 L 58 237 L 44 269 L 47 307 L 61 351 L 106 457 L 154 544 L 194 599 L 212 605 L 226 602 L 242 586 L 242 562 L 201 500 L 170 441 L 116 305 L 120 301 L 128 304 L 165 399 L 210 489 L 246 415 L 286 308 L 292 301 L 300 305 L 264 406 L 219 501 L 256 560 L 304 471 L 351 360 L 370 296 L 367 253 L 345 223 L 317 212 L 269 212 L 245 225 L 219 231 L 179 228 L 146 212 L 109 212 Z M 622 241 L 599 253 L 580 283 L 578 313 L 589 359 L 630 468 L 668 543 L 705 598 L 718 605 L 733 605 L 751 590 L 753 574 L 700 482 L 667 401 L 645 331 L 654 326 L 659 332 L 685 411 L 722 494 L 785 331 L 790 326 L 798 330 L 774 404 L 729 509 L 763 562 L 801 486 L 839 391 L 860 319 L 859 282 L 840 251 L 813 239 L 780 239 L 738 256 L 701 254 L 670 239 Z M 323 459 L 296 516 L 248 601 L 231 614 L 211 618 L 186 702 L 180 741 L 185 759 L 192 770 L 300 899 L 320 913 L 344 915 L 361 908 L 375 893 L 381 874 L 379 857 L 370 841 L 271 725 L 311 598 L 318 566 L 323 520 Z M 93 460 L 93 517 L 98 566 L 146 748 L 146 989 L 153 1005 L 164 1016 L 180 1023 L 197 1023 L 215 1015 L 226 1003 L 232 989 L 232 839 L 180 776 L 168 748 L 171 709 L 198 615 L 177 600 L 154 568 Z M 196 47 L 180 51 L 165 58 L 156 64 L 141 79 L 135 88 L 126 108 L 123 122 L 123 143 L 128 162 L 136 178 L 141 185 L 159 202 L 173 210 L 192 216 L 200 217 L 223 216 L 237 212 L 250 206 L 267 193 L 278 180 L 287 163 L 291 150 L 293 136 L 292 120 L 288 104 L 281 89 L 271 75 L 263 67 L 247 56 L 229 49 L 219 47 Z M 737 81 L 726 80 L 707 82 L 690 88 L 677 96 L 661 112 L 654 123 L 648 137 L 644 155 L 644 171 L 646 182 L 650 194 L 662 214 L 673 225 L 688 235 L 700 240 L 713 243 L 737 243 L 746 241 L 767 232 L 778 224 L 787 215 L 795 204 L 801 192 L 806 172 L 806 153 L 804 142 L 800 131 L 790 113 L 778 100 L 767 92 L 750 84 Z M 654 98 L 649 95 L 637 91 L 630 91 L 629 90 L 627 91 L 616 91 L 599 97 L 589 104 L 581 112 L 573 125 L 569 138 L 569 143 L 568 144 L 569 186 L 566 199 L 561 208 L 553 216 L 546 220 L 533 223 L 533 224 L 554 232 L 576 233 L 591 229 L 605 221 L 617 209 L 622 202 L 630 183 L 630 178 L 631 177 L 631 151 L 632 150 L 634 137 L 637 128 L 645 112 L 654 100 Z M 872 31 L 868 28 L 861 27 L 860 28 L 857 28 L 848 33 L 839 42 L 833 51 L 826 68 L 825 77 L 843 64 L 869 52 L 873 48 L 875 44 L 875 37 Z M 25 88 L 25 96 L 27 100 L 34 105 L 45 105 L 46 104 L 53 104 L 54 103 L 80 103 L 81 104 L 87 104 L 83 98 L 74 90 L 68 86 L 55 80 L 44 79 L 43 78 L 41 79 L 35 79 L 28 83 Z M 899 97 L 897 92 L 893 88 L 885 85 L 876 85 L 875 86 L 871 86 L 861 89 L 853 93 L 843 100 L 838 105 L 836 109 L 838 108 L 863 108 L 864 109 L 871 109 L 872 110 L 876 110 L 882 112 L 887 112 L 888 111 L 891 111 L 896 107 L 899 100 Z M 58 27 L 54 31 L 52 35 L 52 42 L 54 46 L 57 49 L 81 60 L 100 74 L 100 68 L 99 67 L 97 57 L 92 46 L 88 40 L 78 30 L 71 26 L 64 25 Z" fill="#000000" fill-rule="evenodd"/>
</svg>
