<svg xmlns="http://www.w3.org/2000/svg" width="366" height="996" viewBox="533 27 366 996"><path d="M824 467 L 758 603 L 741 616 L 722 619 L 699 610 L 682 589 L 651 540 L 613 462 L 550 663 L 553 670 L 631 685 L 638 692 L 660 771 L 646 992 L 653 1008 L 670 1021 L 688 1023 L 703 1018 L 715 1007 L 722 990 L 732 843 L 690 792 L 678 765 L 681 733 L 695 692 L 702 692 L 705 699 L 691 749 L 693 771 L 795 900 L 815 914 L 835 915 L 850 908 L 863 890 L 865 875 L 859 857 L 768 748 L 788 698 L 849 685 L 880 670 Z M622 241 L 599 253 L 580 283 L 578 313 L 589 359 L 630 468 L 668 543 L 705 598 L 718 605 L 733 605 L 751 590 L 753 574 L 700 482 L 667 401 L 645 331 L 654 326 L 659 332 L 685 411 L 722 494 L 785 331 L 790 326 L 798 330 L 774 404 L 729 509 L 763 562 L 801 486 L 839 391 L 860 319 L 859 282 L 840 251 L 813 239 L 780 239 L 738 256 L 701 254 L 670 239 Z M737 81 L 726 80 L 707 82 L 690 88 L 677 96 L 661 112 L 654 123 L 648 137 L 644 155 L 644 171 L 646 182 L 650 194 L 662 214 L 673 225 L 688 235 L 700 240 L 713 243 L 737 243 L 746 241 L 767 232 L 778 224 L 787 215 L 795 204 L 801 192 L 806 172 L 806 153 L 804 142 L 800 131 L 790 113 L 778 100 L 767 92 L 750 84 Z M654 98 L 649 95 L 637 91 L 630 91 L 629 90 L 627 91 L 616 91 L 599 97 L 589 104 L 581 112 L 573 125 L 569 138 L 569 143 L 568 144 L 569 186 L 566 199 L 561 208 L 553 216 L 546 220 L 533 223 L 533 224 L 554 232 L 576 233 L 591 229 L 605 221 L 617 209 L 622 202 L 630 183 L 630 178 L 631 177 L 631 151 L 632 150 L 634 137 L 637 128 L 645 112 L 654 100 Z M872 31 L 868 28 L 861 27 L 860 28 L 857 28 L 848 33 L 839 42 L 833 51 L 826 68 L 825 77 L 843 64 L 869 52 L 873 48 L 875 44 L 875 37 Z M899 97 L 897 92 L 893 88 L 885 85 L 876 85 L 875 86 L 871 86 L 861 89 L 853 93 L 843 100 L 838 105 L 836 109 L 838 108 L 863 108 L 864 109 L 871 109 L 872 110 L 876 110 L 882 112 L 887 112 L 888 111 L 891 111 L 896 107 L 899 100 Z" fill="#000000" fill-rule="evenodd"/></svg>