<svg xmlns="http://www.w3.org/2000/svg" width="356" height="998" viewBox="25 25 356 998"><path d="M84 218 L 58 237 L 44 269 L 47 307 L 61 351 L 106 457 L 154 544 L 194 599 L 212 605 L 226 602 L 242 586 L 242 562 L 201 500 L 170 441 L 116 305 L 120 301 L 128 304 L 165 399 L 210 489 L 246 415 L 286 308 L 292 301 L 300 305 L 264 406 L 219 501 L 256 560 L 304 471 L 351 360 L 370 296 L 367 253 L 345 223 L 317 212 L 269 212 L 245 225 L 219 231 L 179 228 L 146 212 L 109 212 Z M323 459 L 296 516 L 248 601 L 231 614 L 211 618 L 186 702 L 180 741 L 185 759 L 192 770 L 300 899 L 320 913 L 344 915 L 361 908 L 375 893 L 381 874 L 379 857 L 370 841 L 271 725 L 311 598 L 318 566 L 323 520 Z M93 460 L 93 517 L 98 566 L 146 748 L 146 989 L 153 1005 L 164 1016 L 180 1023 L 197 1023 L 215 1015 L 226 1003 L 232 989 L 232 839 L 180 776 L 168 748 L 171 709 L 198 615 L 177 600 L 154 568 Z M196 47 L 180 51 L 165 58 L 156 64 L 141 79 L 135 88 L 126 108 L 123 122 L 123 143 L 128 162 L 136 178 L 141 185 L 159 202 L 173 210 L 192 216 L 200 217 L 223 216 L 237 212 L 250 206 L 267 193 L 278 180 L 287 163 L 291 150 L 293 136 L 292 120 L 288 104 L 281 89 L 271 75 L 263 67 L 247 56 L 229 49 L 219 47 Z M25 88 L 25 96 L 27 100 L 34 105 L 45 105 L 46 104 L 53 104 L 54 103 L 80 103 L 81 104 L 87 104 L 83 98 L 74 90 L 68 86 L 55 80 L 44 79 L 43 78 L 41 79 L 35 79 L 28 83 Z M58 27 L 54 31 L 52 35 L 52 42 L 54 46 L 57 49 L 81 60 L 100 74 L 100 68 L 99 67 L 97 57 L 92 46 L 88 40 L 78 30 L 71 26 L 64 25 Z" fill="#000000" fill-rule="evenodd"/></svg>