<svg xmlns="http://www.w3.org/2000/svg" viewBox="15 58 177 185">
  <path fill="#a3725a" d="m 51.864118,236.35822 -2.46944,-0.31368 -2.64584,-0.71608 -2.64583,-0.71608 -3.175,-1.54364 -3.175,-1.54364 -2.82222,-2.08056 -2.82223,-2.08056 -1.91277,-2.09239 -1.91277,-2.09239 -1.83859,-2.82222 -1.83859,-2.82223 -1.12356,-2.64583 -1.12357,-2.64583 -0.76158,-2.82223 -0.76158,-2.82222 -0.11367,-54.50416 -0.11367,-54.504169 0.40129,-2.81388 0.4013,-2.813877 0.89286,-2.830567 0.89287,-2.830567 1.41165,-2.810606 1.41165,-2.810606 2.05277,-2.696621 2.05276,-2.696621 2.22632,-2.020822 2.22633,-2.020822 2.7957,-1.725121 2.7957,-1.725121 2.61046,-1.08674 2.61047,-1.086741 2.70772,-0.769527 2.70773,-0.769527 50.270832,-0.114817 50.27083,-0.114816 3.175,0.407146 3.175,0.407146 3.175,1.047619 3.175,1.047619 2.64583,1.417557 2.64584,1.417557 2.54593,1.942136 2.54593,1.942135 1.92775,2.082201 1.92775,2.082201 1.77991,2.711256 1.77992,2.711255 1.09401,2.627938 1.09401,2.627937 0.76628,2.868958 0.76629,2.868958 v 56.268059 56.26805 l -0.76629,2.86896 -0.76628,2.86896 -1.12466,2.70155 -1.12465,2.70155 -1.6879,2.58559 -1.68789,2.58559 -2.36754,2.50973 -2.36755,2.50972 -2.3439,1.73327 -2.3439,1.73327 -2.84025,1.42864 -2.84026,1.42865 -3.11215,0.90187 -3.11214,0.90186 -3.04343,0.34875 -3.04344,0.34875 -48.33055,-0.0417 -48.330552,-0.0417 z m 107.420832,-6.55655 3.35139,-1.13863 2.39482,-1.40408 2.39482,-1.40407 0.95657,-0.74198 0.95657,-0.74199 1.90253,-1.83058 1.90254,-1.83059 1.32776,-1.76389 1.32777,-1.76388 1.42147,-2.83282 1.42146,-2.83282 0.81629,-2.98801 0.81629,-2.98802 V 150.33059 95.120861 l -0.80671,-2.78519 -0.80671,-2.785192 -1.18652,-2.568088 -1.18653,-2.568088 -1.10569,-1.607062 -1.10569,-1.607062 -1.99151,-2.151064 -1.9915,-2.151065 -2.19672,-1.567544 -2.19671,-1.567544 -2.94341,-1.374172 -2.94341,-1.374173 -2.11667,-0.636328 -2.11667,-0.636327 -51.43939,-0.106738 -51.439402,-0.106737 -3.06477,0.723124 -3.06477,0.723124 -3.52777,1.726277 -3.52778,1.726277 -2.35446,1.953975 -2.35446,1.953976 -1.92372,2.39559 -1.92371,2.39559 -1.12376,2.007903 -1.12375,2.007903 -0.99664,2.930986 -0.99664,2.930989 -0.41263,2.64583 -0.41263,2.645829 0.10842,53.79862 0.10842,53.79861 0.97336,3.10324 0.97336,3.10324 1.09671,2.18842 1.09671,2.18843 1.50453,2.11667 1.50454,2.11666 2.06984,1.96146 2.06984,1.96146 2.2704,1.53577 2.27039,1.53578 2.9499,1.20266 2.9499,1.20266 2.18804,0.47843 2.18804,0.47843 51.858332,-0.0631 51.85833,-0.063 z M 56.828208,215.39289 56.273838,214.83852 V 150.71284 86.587161 l 0.64514,-0.583843 0.64514,-0.583843 h 1.05132 1.05133 l 0.54133,0.440973 0.54134,0.440972 10.02005,11.81805 10.02006,11.81806 7.409508,8.65031 7.409507,8.6503 4.053727,4.84345 4.05372,4.84344 h 0.22801 0.228 l 2.81068,-3.43958 2.81069,-3.43959 3.43071,-4.23333 3.43072,-4.23333 2.57597,-3.175 2.57596,-3.175 1.89396,-2.32355 1.89396,-2.32354 8.16843,-10.02368 8.16842,-10.023677 2.07589,-2.469444 2.07588,-2.469445 1.27565,-0.107491 1.27564,-0.107492 0.56268,0.803348 0.56269,0.803348 v 26.854333 26.85432 l -0.64514,0.58385 -0.64514,0.58384 h -1.46339 -1.4634 l -0.54262,-0.82814 -0.54262,-0.82814 0.0935,-21.92609 0.0935,-21.926079 -0.24598,6e-5 -0.24599,6e-5 -5.09984,6.261799 -5.09985,6.26181 -7.49174,9.17222 -7.49173,9.17222 -7.04891,8.73125 -7.04891,8.73125 h -0.81737 -0.81737 l -2.93226,-3.46617 -2.93227,-3.46617 -4.581661,-5.44147 -4.581662,-5.44146 -8.272419,-9.70139 -8.27242,-9.70139 -4.07925,-4.71952 -4.07925,-4.71952 -0.9558,-1.101319 -0.95581,-1.10131 -0.0143,29.528119 -0.0143,29.52812 12.27848,0.10522 12.278467,0.10521 2.682145,1.32615 2.682145,1.32616 1.758678,1.92427 1.758678,1.92428 0.775688,1.60235 0.775687,1.60236 0.492498,1.84999 0.4925,1.84999 0.004,2.30713 0.004,2.30714 -0.52749,2.02515 -0.527482,2.02516 -0.754644,1.48854 -0.754645,1.48855 -1.363702,1.63646 -1.363703,1.63646 v 0.1821 0.1821 l 1.54666,0.90641 1.54666,0.9064 1.680306,1.86115 1.68031,1.86114 0.9949,2.09374 0.994906,2.09374 0.40785,1.96321 0.40786,1.9632 -0.18064,2.99861 -0.18065,2.99861 -0.76934,2.02601 -0.769336,2.02602 -1.57381,2.09362 -1.573805,2.09362 -2.487001,1.59116 -2.487,1.59116 -2.422603,0.55101 -2.422603,0.55101 H 72.016288 57.382648 Z m 32.044716,-5.76185 2.083805,-0.83144 1.507861,-1.50786 1.507861,-1.50786 0.74457,-1.45948 0.744571,-1.45948 0.359307,-1.94367 0.359308,-1.94367 -0.414848,-2.0103 -0.414847,-2.0103 -0.692262,-1.36284 -0.692262,-1.36284 -1.570201,-1.52606 -1.570201,-1.52607 -2.018234,-0.8137 -2.018234,-0.8137 -12.61955,-0.002 -12.61956,-0.002 -0.008,11.28889 -0.009,11.28889 0.0162,0.28851 0.0162,0.28851 12.61181,-0.12048 12.611803,-0.12048 z m -4.654456,-28.2504 2.326052,-0.71845 1.770293,-1.59164 1.770293,-1.59165 0.731138,-1.51033 0.731138,-1.51033 0.39116,-1.94773 0.39116,-1.94772 -0.556682,-2.17295 -0.556682,-2.17294 -0.883342,-1.32857 -0.883341,-1.32858 -1.249865,-0.99139 -1.249866,-0.9914 -1.315125,-0.5961 -1.315121,-0.59611 -11.37709,-0.11031 -11.37708,-0.11032 v 10.72305 10.72305 l 0.21503,0.21503 0.21503,0.21503 9.94842,0.0294 9.94843,0.0294 z m 30.141992,33.92147 -0.58384,-0.64513 v -28.58074 -28.58075 l 0.64514,-0.58384 0.64514,-0.58384 h 1.45152 1.45152 l 0.54917,0.78405 0.54917,0.78405 v 12.44512 12.44511 h 12.7 12.7 v -2.82222 -2.82222 l 0.70556,-0.70556 0.70556,-0.70555 h 1.35643 1.35644 l 0.58384,0.64514 0.58384,0.64514 v 18.67914 18.67914 l -0.54917,0.78405 -0.54917,0.78405 h -1.54749 -1.54749 l -0.54917,-0.78405 -0.54918,-0.78405 V 201.28728 188.1954 l -0.14669,-0.14699 -0.14669,-0.14699 -12.55331,0.0969 -12.55331,0.0969 v 13.14193 13.14192 l -0.54917,0.78405 -0.54917,0.78405 h -1.51282 -1.51282 z m 32.37105,-41.15902 -0.25704,-0.70556 -1.30789,-3.4149 -1.30788,-3.41491 -0.90967,-1.55222 -0.90966,-1.55223 -2.12458,-1.13239 -2.12458,-1.13239 -3.97241,-1.37551 -3.9724,-1.37552 0.87325,-0.3155 0.87325,-0.31551 3.18409,-1.13183 3.18409,-1.13184 2.09735,-1.16135 2.09735,-1.16135 1.32535,-2.43989 1.32535,-2.43988 0.94681,-2.64583 0.94682,-2.64584 0.24345,-0.28289 0.24346,-0.28289 0.96969,2.75233 0.96969,2.75234 1.2679,2.42879 1.2679,2.42879 1.37719,0.99763 1.3772,0.99764 3.58121,1.3977 3.58121,1.3977 0.9677,0.24059 0.9677,0.24059 -0.17762,0.2874 -0.17762,0.2874 -2.90675,0.9594 -2.90675,0.95941 -2.35759,1.17753 -2.35759,1.17753 -0.88709,1.16304 -0.88709,1.16303 -1.06801,2.28403 -1.068,2.28402 -0.86537,2.46945 -0.86538,2.46944 z"/>
  <path fill="#728b7a" d="m 145.52381,170.58439 c -0.74644,-1.97336 -1.7952,-4.39089 -2.33057,-5.37229 -0.94069,-1.72442 -1.04824,-1.82383 -3.20134,-2.95907 -1.22537,-0.64608 -3.76324,-1.70531 -5.63972,-2.35383 -1.87647,-0.64853 -3.49782,-1.25894 -3.60299,-1.35647 -0.10518,-0.0975 1.50295,-0.77801 3.57362,-1.51217 2.07067,-0.73416 4.71115,-1.86642 5.86774,-2.51614 2.07629,-1.16636 2.11863,-1.2101 3.34761,-3.45852 0.6846,-1.25248 1.6957,-3.5297 2.2469,-5.0605 0.55119,-1.5308 1.08406,-2.86684 1.18415,-2.96898 0.10009,-0.10214 0.5637,0.92261 1.03025,2.27722 0.46654,1.35461 1.47024,3.65848 2.23044,5.1197 1.19041,2.28815 1.56789,2.78713 2.72066,3.59644 1.34078,0.94129 5.0755,2.56543 8.30222,3.61045 0.9463,0.30647 1.7131,0.66054 1.704,0.78682 -0.009,0.12628 -1.2388,0.64032 -2.73265,1.14232 -1.49385,0.502 -3.83176,1.45355 -5.19535,2.11455 -2.09619,1.01614 -2.62936,1.4029 -3.45072,2.50312 -1.11016,1.48707 -2.49661,4.37301 -3.6033,7.50039 -0.41859,1.18289 -0.83593,2.22815 -0.92742,2.32279 -0.0915,0.0946 -0.77708,-1.44247 -1.52353,-3.41583 z"/>
</svg>
